<?xml version="1.0" encoding="UTF-8"?>
<svg version="1.1" viewBox="0 0 1068 1012" width="267" height="253" xmlns="http://www.w3.org/2000/svg">
<path transform="translate(508,165)" d="m0 0h45l27 3 23 4 27 7 26 9 18 8 16 8 15 8 24 16 13 10 13 11 12 11 17 17 9 11 12 15 12 18 9 15 13 25 12 29 3 8 34 28 11 9 16 13 17 14 22 18 8 7 1 7-3 13-2 9-8 5-70 35-15 8-5 21-8 27-7 19-8 18-10 20-11 18-13 19-14 17-9 10-7 8-8 8-8 7-14 12-15 11-15 10-17 10-23 12-25 10-21 7-28 7-24 4-21 2h-48l-26-3-26-5-25-7-23-8-20-9-16-8-19-11-12-8-8-6-7-2-8-10-11-9-12-11-15-16-14-17-14-19-13-21-10-19-7-16-12-17-16-21-14-19-21-28-14-19-27-36v-25l3-57 1-13 4-4 16-8 34-16 26-11 28-11 11-19 8-13 8-12 13-17 12-14 8-9h2l2-4 15-14 13-11 19-14 22-14 27-14 21-9 30-10 21-5 22-4z" fill="#1E140C"/>
<path transform="translate(630,268)" d="m0 0h7l8 6 5 4v2l5 2 2 4 5 2v2l4 2 4 3v2l5 2 7 6v2l4 2 3 2v2l4 2 9 7v2l5 2 7 6v2l4 2 4 3v2l5 2 7 6v2l5 2 12 11 3 2v2l5 2 7 6v2l4 2 10 8v2l6 3v2l5 2 12 11 9 7v2l5 2 11 10 11 9 15 13 3 2v2l4 2 3 2v2l5 2 11 10 9 7v2l5 2 3 3v2l3 1v3l-24 7-32 10-9 2v2l-14 4-28 11-12 5-10 5-10 4-21 11-8 4-11 6h-2v2l-7 4-15 10-4 3h-2v2l-5 2v2l-5 2-2 4-8 7-6 7h-5l-9-10-11-11v-2h-2l-7-8-22-22-7-8-18-18-7-8-12-12-7-8-12-12-7-8-19-19-7-8-21-21-7-8-12-12-7-8-14-14v-2h-2l-7-8-11-11-7-8-5-5 1-4 2-3h2l2-4 7-8 12-11 11-8 14-9 28-13 25-9 30-8 31-6z" fill="#FDFDFD"/>
<path transform="translate(322,357)" d="m0 0h30l11 1v2l7 1 12 6 10 9 21 21v2h2l7 8 18 18 7 8 17 17 7 8 13 13 7 8 17 17 7 8 17 17 7 8 21 21 7 8 9 9 7 8 17 17 7 8 10 10 2 4-35 1-34 4-13 3-17 3-24 7-14 5-15 7-31 14-9 5-10 4-15 7-18 9-15 6-4-1-9-12-14-18-13-17-14-18-10-13-14-18-12-16-28-36-10-13-14-18-30-39-14-18-20-26-8-10 1-4 17-8 9-4 22-10 26-10h3v-2l17-5 23-7 27-6z" fill="#FDFDFD"/>
<path transform="translate(862,565)" d="m0 0h2l-1 9-9 32-9 25-8 18-10 20-11 18-13 19-14 17-9 10-7 8-8 8-8 7-14 12-15 11-15 10-17 10-23 12-25 10-21 7-28 7-24 4-21 2h-48l-26-3-26-5-25-7-23-8-20-9-16-8-19-11-12-8-9-7 4-3 104-36h5l6 10 9 11 10 7 10 5 14 3h17l12-3 14-7 12-11 7-11 4-10 3-13-1-23 10-4 61-21 50-17 25-9 66-33 17-9 23-11 19-10 26-13z" fill="#F1AA39"/>
<path transform="translate(508,165)" d="m0 0h45l27 3 23 4 27 7 26 9 18 8 16 8 15 8 24 16 13 10 13 11 12 11 17 17 9 11 12 15 12 18 9 15 13 25 12 29 1 5-4-2-12-9-10-8-16-13-11-9-16-13-13-11-10-8-22-18-16-13-13-11-14-11-13-11-19-14-11-7-11 1-25 5-45 7-19 4-2 1-14 2-29 9-21 8-17 8-17 9-6 4h-3v2l-6 2v2l-13 9-14 12-7 7-7 9-5-1-17-5-20-3h-24l-31 4-31 7-34 10-5 1 8-16 8-13 10-15 13-17 12-14 8-9h2l2-4 15-14 13-11 19-14 22-14 27-14 21-9 30-10 21-5 22-4z" fill="#F1AA39"/>
<path transform="translate(961,331)" d="m0 0h2l12 37 9 36 6 36 3 35v50l-3 36-5 29-6 27-9 31-9 25-11 25-13 26-8 14-12 19-8 12-12 16-10 13-11 12-7 8-12 13-10 10-8 7-10 9-11 9-21 16-21 14-20 12-28 15-30 13-31 11-28 8-33 7-38 5-15 1h-58l-26-2-27-4-28-6-26-7-27-9-22-9-20-9-23-12-17-10-27-18-17-13-16-13-13-12-9-8 1-3 12-7 7-6 4 2 8 7 14 12 15 12 17 12 22 14 25 14 25 12 30 12 29 9 29 7 31 5 31 3 34 1 36-2 30-4 30-6 29-8 29-10 30-13 20-10 27-16 19-13 16-12 11-9 14-12 16-15 16-17 13-15 13-17 10-14 11-17 12-21 10-19 11-25 9-24 10-34 7-34 3-19 3-35v-43l-3-34-6-36-8-32-10-30 2-4 16-8z" fill="#010101"/>
<path transform="translate(506,35)" d="m0 0h36l31 2 30 4 34 7 25 7 27 9 22 9 24 11 22 12 20 12 16 11 19 14 11 9 13 11 8 6 7 4 21 21 1 4-14 9-6 5-7-6-21-21-11-9-7-5-8-4-13-10-27-18-17-10-22-12-22-10-26-10-28-9-29-7-22-4-23-3-32-2h-33l-35 3-32 5-30 7-29 9-21 8-25 11-29 15-24 15-17 12-16 12-8 3-11 10-8 7-22 22-7 9h-2l-2 4-11 13-13 18-12 18-9 15-13 24-13 28-10 27-8 26-7 29-4 23-3 26-1 16v46l2 26 5 33 7 32 4 16-18 10-5 3-3-7-8-31-6-31-4-32-1-12v-62l4-37 6-32 7-28 12-36 9-22 11-24 13-24 11-18 13-19 12-16 13-16 9-10 2-3h2l2-4 16-16 7-4 10-8 14-12 17-13 17-12 19-12 21-12 15-8 24-11 29-11 29-9 30-7 36-6 21-2z" fill="#010101"/>
<path transform="translate(133,645)" d="m0 0h23l17 4 13 6 10 6 11 9 9 10 7 11 5 10 4 12 2 11v22l-5 19-5 12-10 15-12 12-10 7-16 8-14 4-8 1h-21l-15-3-15-6-14-9-12-11-9-12-8-16-4-13-2-14v-11l3-18 5-14 7-12 11-14 8-7 14-9 11-5 14-4z" fill="#3F76B4"/>
<path transform="translate(902,197)" d="m0 0h15l16 4 13 7 13 11 8 11 6 12 3 12v20l-3 13-8 16-8 10-10 8-14 7-10 3-9 1h-12l-14-3-16-8-9-7-9-10-6-10-5-14-1-5v-21l3-12 8-16 9-10 8-7 11-6 11-4z" fill="#84B870"/>
<path transform="translate(492,226)" d="m0 0h16l12 2 12 5 11 7 6 5v2h2l2 5-12 4-25 7-20 7-21 9-15 8-8 4-6 4h-3v2l-6 3h-2l-1-2v-11l3-15 5-12 8-11 9-9 13-8 11-4z" fill="#FDFDFD"/>
<path transform="translate(370,240)" d="m0 0h14l10 5 7 8 3 8v11l-4 9-7 8-5 3-4 1h-13l-9-3-8-8-4-10v-10l3-9 8-9z" fill="#1E130B"/>
<path transform="translate(629,717)" d="m0 0h9l11 4 7 7 3 6 1 5v10l-3 7-9 10-9 3h-11l-9-4-7-8-4-10 1-11 4-8 5-6 8-4z" fill="#FEFEFE"/>
<path transform="translate(224,643)" d="m0 0 4 2 10 13 28 38 16 21 12 17 10 13 6 9-1 2-11-9-10-10-7-8-9-10-8-10-14-19-13-21-10-19z" fill="#F1AA39"/>
</svg>
