<svg xmlns="http://www.w3.org/2000/svg" xml:space="preserve" width="512px" height="512px" version="1.1"
     style="shape-rendering:geometricPrecision; text-rendering:geometricPrecision; image-rendering:optimizeQuality; fill-rule:evenodd; clip-rule:evenodd"
     viewBox="0 0 512 512">
 <defs>
  <style type="text/css">

    .fil0 {fill:url(#id0)}

  </style>
     <linearGradient id="id0" gradientUnits="userSpaceOnUse" x1="256" y1="512.208" x2="256" y2="-0.207875">
   <stop offset="0" style="stop-opacity:1; stop-color:#1AA8DC"></stop>
         <stop offset="0.490196" style="stop-opacity:1; stop-color:#AE3B89"></stop>
         <stop offset="1" style="stop-opacity:1; stop-color:#F26270"></stop>
  </linearGradient>
 </defs>
    <g id="Layer_x0020_1">
  <metadata id="CorelCorpID_0Corel-Layer"></metadata>
        <path class="fil0" d="M440 512l-368 0c-20,0 -36,-16 -36,-36l0 -440c0,-20 16,-36 36,-36l368 0c20,0 36,16 36,36l0 440c0,20 -16,36 -36,36zm-269 -366c-3,0 -6,0 -9,-1 0,1 0,2 -1,2l-8 11c-1,1 -3,3 -5,3 -1,0 -35,2 -37,23 0,0 0,0 0,0 0,2 0,11 0,21l122 0 0 -21c-1,-21 -36,-23 -37,-23 -2,0 -4,-2 -5,-3l-7 -9c-1,-1 -3,-2 -3,-4 -3,1 -7,1 -10,1zm-24 -5l0 -3c-8,-7 -13,-17 -13,-29l0 -13c-2,-8 -5,-24 1,-32 11,-14 31,-21 50,-16 15,4 25,15 27,29 0,1 0,1 0,1 0,4 -1,13 -4,18l0 13c0,11 -5,21 -13,27l0 3 6 7c11,1 46,8 47,37l0 28c-1,5 -4,8 -8,8l-137 0c-4,0 -7,-3 -7,-7 0,-21 0,-27 0,-30l0 0c2,-28 36,-35 47,-36l4 -5zm2 -44l0 12c0,12 10,22 22,22 12,0 22,-10 22,-22l0 -13 -4 -4c0,0 -1,1 -2,1 -2,1 -6,3 -12,1 -6,-3 -13,-5 -18,-6l-8 9zm6 -24c1,0 1,0 2,0 0,0 12,3 22,7 0,-1 0,-1 0,-1 0,-3 1,-6 4,-8 3,-1 7,0 9,2l5 6c0,0 0,0 0,0 -2,-12 -12,-16 -16,-17 -11,-3 -25,-1 -34,10 0,1 -1,4 0,7l3 -4c1,-1 3,-2 5,-2zm257 393l-312 0c-4,0 -8,-4 -8,-8 0,-4 4,-7 8,-7l312 0c4,0 8,3 8,7 0,4 -4,8 -8,8zm0 -62l-312 0c-4,0 -8,-3 -8,-7 0,-4 4,-8 8,-8l312 0c4,0 8,4 8,8 0,4 -4,7 -8,7zm0 -62l-312 0c-4,0 -8,-3 -8,-7 0,-4 4,-8 8,-8l312 0c4,0 8,4 8,8 0,4 -4,7 -8,7zm0 -61l-312 0c-4,0 -8,-3 -8,-8 0,-4 4,-7 8,-7l312 0c4,0 8,4 8,8 0,4 -4,7 -8,7zm0 -62l-146 0c-4,0 -8,-3 -8,-7 0,-4 4,-8 8,-8l146 0c4,0 8,4 8,8 0,4 -4,7 -8,7zm0 -61l-146 0c-4,0 -8,-3 -8,-7 0,-5 4,-8 8,-8l146 0c4,0 8,3 8,8 0,4 -4,7 -8,7z"></path>
 </g>
</svg>