<svg width="24" height="24" viewBox="0 0 24 24" fill="none" xmlns="http://www.w3.org/2000/svg">
    <path d="M21 12.79C20.71 12.83 20.42 12.85 20.13 12.85C15.58 12.85 11.85 9.12 11.85 4.57C11.85 4.28 11.87 3.99 11.91 3.7C7.99 4.15 5 7.5 5 11.5C5 15.64 8.36 19 12.5 19C16.5 19 19.85 16.01 20.3 12.09C20.01 12.13 19.72 12.15 19.43 12.15C19.14 12.15 18.85 12.13 18.56 12.09C18.6 12.38 18.62 12.67 18.62 12.96C18.62 16.5 15.54 19.58 12 19.58C8.46 19.58 5.38 16.5 5.38 12.96C5.38 9.42 8.46 6.34 12 6.34C12.29 6.34 12.58 6.36 12.87 6.4C12.83 6.11 12.81 5.82 12.81 5.53C12.81 5.24 12.83 4.95 12.87 4.66C12.58 4.7 12.29 4.72 12 4.72C7.03 4.72 3 8.75 3 13.72C3 18.69 7.03 22.72 12 22.72C16.97 22.72 21 18.69 21 13.72C21 13.43 20.98 13.14 20.94 12.85C20.95 12.83 20.97 12.81 20.98 12.79H21Z" fill="currentColor"/>
</svg>