<?xml version="1.0" encoding="UTF-8"?>
<svg version="1.1" viewBox="0 0 1600 664" width="775" height="322" xmlns="http://www.w3.org/2000/svg">
<path transform="translate(758,62)" d="m0 0 16 8 23 12 2 2v14l-9 6-31 31-4 7h-130v-3l13-8 25-14 10-6 35-20 15-9 18-10 14-8z" fill="#EC6C2C"/>
<path transform="translate(845,62)" d="m0 0 15 8 13 8 8 4 15 9 21 12 16 9 19 11 21 12 6 4v3h-130l-6-9-14-14-8-7-7-8-9-6v-14l8-5 29-15z" fill="#EC6B2D"/>
<path transform="translate(753,146)" d="m0 0 4 4 5 7 8 7 24 24 5 3v13l-9 6-16 8-14 8-5-1-49-28-15-9-14-8-24-14-25-14-4-3v-2z" fill="#F69F22"/>
<path transform="translate(614,156)" d="m0 0 3 1 9 16 11 19 12 21 10 17 9 16 12 20 1 4-3 6-11 38-2 16-10 6-4-1-13-8-20-12-4-3z" fill="#5161A5"/>
<path transform="translate(852,146)" d="m0 0 128 1-5 5-24 14-28 16-27 16-16 9-21 12-12 7-4-1-27-14-10-6-1-1v-13l10-7 7-8 5-5 8-7 7-8 5-5 1-4z" fill="#F69F22"/>
<path transform="translate(981,153)" d="m0 0h2l-2 5-10 18-14 24-9 16-10 17-11 19-8 14-2 1-10 1-38 10-9 3-4 2-9-6-1-1 1-45 10-7 18-10 17-10 21-12 17-10 49-28z" fill="#ACD03F"/>
<path transform="translate(621,153)" d="m0 0 6 2 28 16 25 14 22 13 23 13 17 10 13 8 1 1 2 39v6l-8 6-6 1-4-3-23-6-25-7h-6l-6-8-10-18-11-19-14-24-24-42z" fill="#5495B6"/>
<path transform="translate(841,282)" d="m0 0 7 1 7 5 1 10 7 28 7 21-1 6-8 13-8 14-11 19-14 24-8 14-14 24-2-1v-154l8-6 11-7z" fill="#74C040"/>
<path transform="translate(666,335)" d="m0 0 5 1 30 9 22 5h5l12 20 6 11 8 13 14 25 14 24 8 14 3 5v2l-5-2-20-11-17-10-16-9-14-8-18-11-14-8-23-13-9-6-1-26v-20z" fill="#5273AB"/>
<path transform="translate(935,335)" d="m0 0 9 3 3 3v18l-1 27-4 4-25 14-14 8-20 12-21 12-16 9-15 9-14 8-3 2h-3l2-5 8-15 10-17 9-16 14-24 11-19 8-14 2-3 16-3 20-5 23-7z" fill="#1BAB4F"/>
<path transform="translate(988,156)" d="m0 0h1v157l-15 9-19 12-3 2h-5l-8-6-2-12-8-31-4-13-3-5 8-13 9-16 11-19 8-14 14-24 11-19z" fill="#74C040"/>
<path transform="translate(759,281)" d="m0 0 6 2 18 11 15 10 1 1v155h-2l-12-21-14-24-13-23-6-10-11-19-8-14 7-21 9-35 1-7z" fill="#51A5BD"/>
<path transform="translate(80,534)" d="m0 0h12l13 4 10 6 8 9 6 15 1 11-2 11-7 14-11 10-13 5-4 1h-14l-12-4-8-5-8-8-5-10-3-12v-8l3-12 5-9 8-9 16-8zm2 21-10 5-5 6-3 8 1 10 6 10 11 5h9l10-5 4-5 3-6v-12l-6-10-8-5-4-1z" fill="#F68D22"/>
<path transform="translate(1040,534)" d="m0 0h11l9 2 13 7 8 8 6 12 2 9v11l-3 10-5 10-10 10-11 5-8 2h-13l-13-4-6-4-9-8-6-12-2-7v-16l4-11 5-8 8-8 12-6zm2 21-7 3-5 3-5 8-1 3v11l5 9 5 4 7 3h10l10-5 6-10 1-10-4-10-7-6-8-3z" fill="#F68D22"/>
<path transform="translate(909,535)" d="m0 0h39l9 3 8 6 6 10 1 2v15l-7 13-4 4 11 20 5 10h-24l-9-15-5-9-1-1h-8v24l-1 1h-20l-1-2v-69zm21 20v17h17l5-5 1-5-4-6-3-1z" fill="#F68D22"/>
<path transform="translate(798,103)" d="m0 0h8l10 9 24 24 3 5v6l-4 6-31 31-4 2-7-1-35-35-1-2v-7l4-6 31-31z" fill="#EE7E26"/>
<path transform="translate(911,272)" d="m0 0 9 2 5 16 9 32-1 9-8 4-24 6-16 5h-7l-5-3-3-8-5-20-6-21 1-5 5-5 26-7 15-4z" fill="#74C040"/>
<path transform="translate(688,272)" d="m0 0h7l19 5 25 7 4 4v9l-4 17-8 26-4 5-6 1-33-9-14-4-5-5 1-8 7-25 5-19 3-3z" fill="#5481B1"/>
<path transform="translate(338,535)" d="m0 0h21l1 28h2l2-4 9-11 10-13h27l-3 5-9 11-11 14-6 7 2 4 14 19 11 14 5 7v2h-25l-8-9-9-12-4-5-2-1-2 4-3 3-1 20h-21z" fill="#F68D22"/>
<path transform="translate(250,535)" d="m0 0h52v20h-32v11h29v19l-1 1-28-1v14h33v18l-1 1h-52l-1-1v-81z" fill="#F68D22"/>
<path transform="translate(852,146)" d="m0 0 128 1-5 5-24 14-28 16-5 2-3-2-22-4-24-3h-8l-8-1-2 1h-8l-4-1h-6l-7 2 2-4 13-13 2-4 4-4 1-4z" fill="#F68D22"/>
<path transform="translate(845,62)" d="m0 0 15 8 13 8 8 4 15 9 21 12 16 9 4 3-1 2-9-4-6-2h-22l-3 1h-11l-5 1h-18l-17-1h-12l-11 1-8-9-9-6v-14l8-5 29-15z" fill="#ED5F31"/>
<path transform="translate(1404,535)" d="m0 0h52l1 1v12l-1 7h-31v10l29 1v19l-29 1v12l32 1v19h-53l-1-33v-49z" fill="#F68D22"/>
<path transform="translate(471,533)" d="m0 0 11 1 9 4 6 4 6 9v2l-13 8-4 2-4-4v-2l-6-2-8 1-1 5 13 6 16 7 8 10 2 6v9l-3 7-6 8-9 4-7 2h-14l-12-4-10-9-3-5 1-4 14-8 4 1 4 5 8 3 7-1 4-3-1-4-8-4-15-5-8-6-6-9-1-4v-9l4-9 4-5 6-4 5-2z" fill="#F68E22"/>
<path transform="translate(739,533)" d="m0 0h7l11 3 8 6 7 8v3l-13 8-5 2-4-6-5-2-9 1v6l6 2 21 9 7 6 4 8v15l-4 8-8 6-12 4h-13l-13-4-8-7-6-8v-2l17-10 7 7 9 3 6-1 3-2v-5l-5-3-18-6-8-6-6-9-1-4v-8l4-10 5-6 10-5z" fill="#F68E22"/>
<path transform="translate(1336,533)" d="m0 0 12 1 12 6 8 9 1 3-11 8-7 3-6-7-8-1-4 2v4l20 9 8 4 7 7 3 8v11l-3 8-7 7-10 4-4 1h-14l-12-4-8-7-6-8 1-3 15-8h3l3 5 6 3 8 1 6-3-1-6-10-4-10-3-9-6-6-7-2-6v-11l5-10 7-6 7-3z" fill="#F68E22"/>
<path transform="translate(947,172)" d="m0 0 2 1-5 5-3 7-14 21-5 5-10 14-9 9-1 2h-2v2h-2l-2 4-12 14-6 4-9 10-9 4h-9l-3-4-1-39 10-7 18-10 17-10 21-12 17-10z" fill="#C1D537"/>
<path transform="translate(745,310)" d="m0 0 6 2 1 7 4 11 1 3 5 5 1 4 3 1 4 4 6 12 7 19 1 5 6 10 4 18h2v4l3 1v44h-2l-12-21-14-24-13-23-6-10-11-19-8-14 7-21 4-16z" fill="#5495B6"/>
<path transform="translate(841,282)" d="m0 0 7 1 7 5 1 10 5 21-1 3h-3l-7 14-10 11-7 9-7 7-4 1-2 4-9 3-5 2-1 14h-1v-81l8-6 11-7z" fill="#99CB3C"/>
<path transform="translate(758,62)" d="m0 0 16 8 23 12 2 2v14l-9 6-10 10-2-1v-3l-19 1-16-3h-9l-7-1-2 2h-9l-7 1-7-1-10 4-17 4-4-1-1-3 15-9 14-8 18-10 11-7 24-13z" fill="#ED5F31"/>
<path transform="translate(1486,535)" d="m0 0h22l14 42 3 8 6-18 10-29 1-3h22l-3 12-20 60-4 11h-24l-3-8-12-35-12-37z" fill="#F68D22"/>
<path transform="translate(1112,535)" d="m0 0h21l3 7 12 37 2 6 4-10 11-33 3-7h22l-3 11-12 36-12 35-1 1h-24l-22-66-4-13z" fill="#F68D22"/>
<path transform="translate(614,156)" d="m0 0 3 1 9 16 11 19 12 21 10 17 9 16 12 20 1 4-3 6-6 21-9-3-7-10-11-26-9-15-9-21-6-10-3-2v3h-2v80l1 18 2 4-5-3z" fill="#5273AB"/>
<path transform="translate(753,146)" d="m0 0 4 4 5 7 8 7 6 6 2 5h-17l-10-1h-33l-9 1-2-1h-15l-7-1-1 1h-6l-2-1h-11l-28-16-13-8v-2z" fill="#F58D22"/>
<path transform="translate(796,535)" d="m0 0h24l13 24 4 4 6-11 9-17h24l-2 5-8 16-9 16-9 17-1 29h-21l-1-28-15-28-12-22z" fill="#F68E22"/>
<path transform="translate(660,175)" d="m0 0 6 2 21 12 15 9 23 13 17 10 13 8 1 1 2 39v6l-8 6-6 1-4-3-14-4-1-2 3-1-2-4-2-1-2-8v-3l-1-7-7-12-1-3-3 1-3-5v-2l-4-1-5-11v-6l-3-1-4-11v-2l-5-2-10-7-14-9z" fill="#52A5BD"/>
<path transform="translate(666,335)" d="m0 0 5 1 10 4 4 5 8 15 9 21 9 24 6 7 7 6 2 6-3 1-15-9-19-11-23-13-9-6-1-26v-20z" fill="#5161A5"/>
<path transform="translate(987,250)" d="m0 0 2 4v59l-15 9-19 12-3 2h-5l-8-6-2-12-3-11v-6l1-2 10-2v-2l6-4 10-10 10-13 9-10 2-3h2l1-4z" fill="#1AAB4F"/>
<path transform="translate(1220,535)" d="m0 0h62v20h-20v62l-1 1h-20v-63h-21z" fill="#F68E22"/>
<path transform="translate(163,535)" d="m0 0h21v64h32v19h-53z" fill="#F68D22"/>
<path transform="translate(538,535)" d="m0 0h21v83h-21z" fill="#F68D22"/>
<path transform="translate(599,535)" d="m0 0h20l1 1v81l-1 1h-20z" fill="#F68D22"/>
<path transform="translate(716,349)" d="m0 0 12 1 12 20 6 11 8 13 14 25 14 24 1 3h-2l-3-3-7-1h-6l-5-5-7-8-4-6-3-5-3-4-5-11 1-3-1-2-2 1-5-10-5-12-8-11-1-6 1-6z" fill="#5482B1"/>
<path transform="translate(981,153)" d="m0 0h2l-2 5-10 18-14 24-9 16-10 17-11 19-8 14-2 1-10 1-27 7-4-1 14-9 4-5 5-4h2v-2h2l2-4 7-8 6-8 7-8 5-6 4-4 4-7h2l2-4 7-9 5-6 6-8 4-4h3l-1-5 3-9h2l1-4h2v-2l4-2z" fill="#99CB3C"/>
<path transform="translate(801,209)" d="m0 0 6 2 23 12 8 5v3l-21 12-14 9-5-2-19-11-14-9v-2l25-13z" fill="#ED6131"/>
<path transform="translate(800,38)" d="m0 0 6 1 16 9 16 10v3l-30 16-6 3-14-7-22-12-1-3 25-14z" fill="#EC4636"/>
<path transform="translate(614,319)" d="m0 0 4 1 17 10 11 7 5 4 1 17v25l-9-4-18-10-11-7z" fill="#52529F"/>
<path transform="translate(840,234)" d="m0 0h2v15l-1 24-1 4-33 21h-3v-43l8-5 19-11z" fill="#20AB50"/>
<path transform="translate(768,285)" d="m0 0 11 7 12 7 8 6v86h-1l-2-19-4-15-6-13-14-22-3-5v-2h-3l-5-10-1-6 3-7 5-3z" fill="#52AEC0"/>
<path transform="translate(762,234)" d="m0 0 5 2 17 9 14 9 1 1v43l-11-6-23-14-3-4z" fill="#5573AA"/>
<path transform="translate(852,146)" d="m0 0 128 1-5 5-19 11-8 2v-2h-17l-25-4-10-1-30-1-5 2-10-1-8 2-1-4 5-5 1-4z" fill="#EE7E26"/>
<path transform="translate(988,318)" d="m0 0h1v44l-9 6-16 9-12 6v-27l1-15 3-3 12-7 19-12z" fill="#1AAB4F"/>
<path transform="translate(845,62)" d="m0 0 15 8 13 8 4 2 7 8-1 3-2 1h-15l-4 1-38 1-7 2-5 1-6-2v-12l22-12z" fill="#EC4536"/>
<path transform="translate(776,171)" d="m0 0 7 6 11 11 5 4-4 5h-2v2l-9 2-5-1 1-8-4-1-10-4-7-2-18-1-5-1h-16l-2-1-9-1-2-1v2l-10 1 1 4 6 3v2h2v2l5 2 6 4v2l-5-2-16-9-19-11-10-6 1-2h8l8 2 1-2 14 1h8l3 1 8-1h39l7 1h13z" fill="#F79723"/>
<path transform="translate(621,153)" d="m0 0 6 2 21 12 2 4v2l1 3 3 1 2 6-1 2 3 1h-3v2h2l1 5v3l3 6v2h2l4 8 2 5 3 7 2 2 5 11 2 6h2v2h2l9 15-1 5-7 1-6-8-10-18-11-19-14-24-24-42z" fill="#5482B1"/>
<path transform="translate(661,118)" d="m0 0 2 1-3 2v6l1 1 32 1 17 7h12l8-1h26 3l-4 7h-130v-3l13-8z" fill="#EE7D26"/>
<path transform="translate(758,62)" d="m0 0 16 8 23 12 2 2v7l-1 2-4 1h-7l-6-2-17-3h-37l-8-3 5-5 17-9 14-8z" fill="#EC4536"/>
<path transform="translate(619,261)" d="m0 0 3 3 9 20 10 22 5 10 4 10h11l4 4-10 6-4-1-13-8-19-12-3-4-1-27 1-18h2z" fill="#52519F"/>
<path transform="translate(988,220)" d="m0 0h1v34l-2-3h-2l-1 4-5 5-9 10-10 13-11 11-4 1v2l-6 2h-4l-1 3-2-4-2-8v-6l4-3 7-2 7-4 5-8 9-11h2v-2l9-9 2-3 5-2 7-11z" fill="#4EB849"/>
<path transform="translate(841,282)" d="m0 0 7 1 2 2-2 10-6 9-3 6-6 7-5 5-5 4h-3v2h-10l-6 2v-24l8-6 11-7z" fill="#C0D538"/>
<path transform="translate(705,275)" d="m0 0 9 2 25 7 4 4v9l-4 17-3 10-3-3-3-1-5 1-3-1-12-22-4-11z" fill="#5496B6"/>
<path transform="translate(680,285)" d="m0 0 4 2 4 9 7 16 8 15 3 2 1 4 8 6 1 4-9-1-27-7-9-4-2-3 1-8 7-25 2-9z" fill="#5273AB"/>
<path transform="translate(838,151)" d="m0 0 2 1-32 32-4 2-7-1-25-25 2-2h3l1-2 7-1h17l28 2v-2z" fill="#F68D22"/>
<path transform="translate(753,146)" d="m0 0 4 4 1 5-2 1h-11l-12-1-7 2h-24l-16-2h-14l-7-1h-13l-6 2v4l-5-1-16-9-1-3z" fill="#EE7D26"/>
<path transform="translate(849,285)" d="m0 0 5 2 1 2 1 9 2 11h-6l-4 7-3 7-7 6-7 10-8 7-6 3-11 1-2 4v-24l6-3 10 1v-2l7-4 4-5 5-4 4-7 6-10 2-3z" fill="#ACD140"/>
<path transform="translate(841,157)" d="m0 0v3l-5 4 2-4zm-6 7m-1 1m-2 1 2 1-7 7v-3zm1 7h11v1h7l3-1 11 1 19 2 13 2 18 3 3 2v2l-10 5-4-1-3 1-13-2-19-3h-15-3-3l-1 2-14 1-1-2-5-1-2 4h-2v-2l-4 1v-3h-3l1-4 8-7 1 2z" fill="#F79723"/>
<path transform="translate(798,103)" d="m0 0h8l10 9 22 22v3l-6-1-7-3-11-1h-37l-2-1-1 2-3-2 26-26z" fill="#EC6D2C"/>
<path transform="translate(925,295)" d="m0 0 2 2 7 25-1 9-8 4-24 6-16 5h-7l-1-2 7-2 6-5h2v-2l9-6 2-3h2l2-4 10-12 4-6 2-7h2z" fill="#4FB849"/>
<path transform="translate(891,348)" d="m0 0 3 1-2 10-4 6-5 6-1 3h-2v2l-7 6-9 11-3 3h-2l-1 3-8 6h-6l8-15 10-17 8-14 5-8z" fill="#4FB849"/>
<path transform="translate(713,205)" d="m0 0 14 7 10 6 18 11 1 1 1 14v10l-2 9-4 1-6-7-9-16-5-8-6-14-4-5-5-4v-2l-3-1z" fill="#55AFC0"/>
<path transform="translate(829,225)" d="m0 0 5 1 4 2v3l-21 12-14 9-5-2-19-11-14-9v-2l6-2 5 5 6 2 8 1h10v-2l5-2v2l11-4h5z" fill="#EC4736"/>
<path transform="translate(834,406)" d="m0 0h3l-2 5-9 16-9 15-11 19-2-1v-32l4-4 9-1 4-1 4-5h2l2-5z" fill="#51B849"/>
<path transform="translate(657,350)" d="m0 0h2l7 14 5 15 8 11 1 3 4 2v3h2v4l-6-2-22-13-1-1-1-27z" fill="#52519F"/>
<path transform="translate(884,279)" d="m0 0h3l1 2-1 10-5 5-3 1-5 5-5 3-2 3-1 7-2-3-5-18 1-5 5-5z" fill="#9ACB3C"/>
<path transform="translate(599,535)" d="m0 0h20l1 1v81l-1 1h-20zm3 1-2 1v79l1 1h16l1-1v-77l-1-2-14-1z" fill="#F79923"/>
<path transform="translate(250,535)" d="m0 0h52v20h-32v-1l30-1-1-16h-48v80l50-1 1-17h1v18l-1 1h-52l-1-1v-81z" fill="#F69C22"/>
<path transform="translate(933,237)" d="m0 0 1 3-11 19-5 8h-7l-8 1 2-5 11-10 8-7 5-6z" fill="#79C140"/>
<path transform="translate(928,311)" d="m0 0 3 1 3 10-1 9-8 4-11 2v-4l8-9 4-8z" fill="#1FAC4E"/>
<path transform="translate(1404,535)" d="m0 0h52l1 1v12h-1l-1-9-9-2h-20l-20 1v78l32 1v1h-34l-1-33v-49z" fill="#F79723"/>
<path transform="translate(163,535)" d="m0 0h21v64h-1l-1-13v-48l-18-2 1 80 51 1v1h-53z" fill="#F79723"/>
<path transform="translate(338,535)" d="m0 0h21l1 30h-2l-1-28-18-1 1 9v71l3 2h-5z" fill="#F79723"/>
<path transform="translate(790,434)" d="m0 0 6 1 2 4 1 10v11h-2l-6-12-2-5v-7z" fill="#5485B2"/>
<path transform="translate(988,156)" d="m0 0h1v29h-1v-10l-10 3-4 3 2-5z" fill="#99CB3C"/>
<path transform="translate(614,210)" d="m0 0h1l1 83 1 18 2 4-5-3z" fill="#5171AA"/>
<path transform="translate(947,121)" d="m0 0 12 6 19 11 1 4h-36v-1l21-1 5-1 1-3-13-7-10-6z" fill="#F08326"/>
<path transform="translate(252,535)" d="m0 0h50v20h-32v-1l30-1-1-16-47-1z" fill="#F79723"/>
<path transform="translate(814,175)" d="m0 0 2 1-8 8-4 2-7-1-4-4v-2h11l8-3z" fill="#F79723"/>
<path transform="translate(800,103)" d="m0 0h6l10 9v2l-6-1-2-2-5-1-4-3z" fill="#ED662F"/>
<path transform="translate(1e3 585)" d="m0 0 2 3 5 9 3 5v2h2l4 4v2l4 2 5 3-3 1-6-4-9-8-6-12z" fill="#F79823"/>
<path transform="translate(108,572)" d="m0 0 2 2 1 6-4 8-2 6-8 5-9 2-5-1v-1l11-2 8-5 5-9z" fill="#F79823"/>
<path transform="translate(659,220)" d="m0 0h2l1 2 5 3 3 10 2 5 4 2-1 5-4-5-12-21z" fill="#5396B6"/>
<path transform="translate(383,535)" d="m0 0h27l-3 5-2 1-1-4-16 1-9 4 2-4z" fill="#F79723"/>
<path transform="translate(746,218)" d="m0 0 10 1 7 3-1 3-6 1-10-6z" fill="#F69423"/>
<path transform="translate(621,153)" d="m0 0 6 2 7 4-1 3-7 1-5-8z" fill="#6574A3"/>
<path transform="translate(717,200)" d="m0 0 3 1v2l10 3 8 6v2l-6-2-15-9z" fill="#F29C25"/>
<path transform="translate(670,320)" d="m0 0 4 1 2 5v5h-5l-2-3z" fill="#5166A7"/>
<path transform="translate(1061,593)" d="m0 0v3l-11 5h-10l-7-4 1-2 7 3h10z" fill="#F79723"/>
<path transform="translate(1357,572)" d="m0 0 5 3 7 8 2 6v11l-2-1-2-15-7-8-3-2z" fill="#F79923"/>
<path transform="translate(810,447)" d="m0 0 2 1-1 4-5 9-2-1v-7l4-4h2z" fill="#25AD4D"/>
<path transform="translate(1542,535)" d="m0 0h22l-1 5h-2v-3h-14l-4 1-1 3-1-3z" fill="#F79723"/>
<path transform="translate(1486,535)" d="m0 0h22l1 4-1-2h-10l-12 1z" fill="#F79723"/>
<path transform="translate(1168,535)" d="m0 0h22l-2 8h-1v-6h-19l-1 2z" fill="#F79723"/>
<path transform="translate(947,121)" d="m0 0 12 6 12 7-3 1-11-6-10-6z" fill="#F08725"/>
<path transform="translate(615,293)" d="m0 0h1l1 18 2 4-5-3v-17z" fill="#5164A6"/>
<path transform="translate(75,535)" d="m0 0 3 1-8 4-11 6-3 2 2-4 10-6z" fill="#F79923"/>
<path transform="translate(538,535)" d="m0 0h21v1l-19 1-1 10h-1z" fill="#F79723"/>
<path transform="translate(796,535)" d="m0 0h24l1 4-2-1v-2l-20 1 1 3-3-1z" fill="#F79823"/>
<path transform="translate(1447,535)" d="m0 0h9l1 1v12h-1l-1-9-8-2z" fill="#F79A23"/>
<path transform="translate(701,198)" d="m0 0 12 6-4 2-7-4z" fill="#7AAEBB"/>
<path transform="translate(771,605)" d="m0 0v3l-4 5-7 4-3-1 9-6z" fill="#F79923"/>
<path transform="translate(1163,548)" d="m0 0h2l-3 12-4 5 2-9z" fill="#F79823"/>
<path transform="translate(112,609)" d="m0 0 2 1-6 5-9 3 3-3z" fill="#F79823"/>
<path transform="translate(928,600)" d="m0 0h1l1 17-1 1h-6l4-2z" fill="#F79823"/>
<path transform="translate(668,235)" d="m0 0h2l2 5 4 2-1 5-4-5-3-5z" fill="#5399B7"/>
<path transform="translate(491,572)" d="m0 0 6 3 5 6-1 2-10-9z" fill="#F79823"/>
<path transform="translate(846,136)" d="m0 0 4 1 5 2v2l-6 1z" fill="#EF8225"/>
</svg>
