<?xml version="1.0" standalone="no"?>
<!DOCTYPE svg PUBLIC "-//W3C//DTD SVG 20010904//EN"
 "http://www.w3.org/TR/2001/REC-SVG-20010904/DTD/svg10.dtd">
<svg version="1.0" xmlns="http://www.w3.org/2000/svg"
 width="803.000000pt" height="363.000000pt" viewBox="0 0 803.000000 363.000000"
 preserveAspectRatio="xMidYMid meet">

<g transform="translate(0.000000,363.000000) scale(0.100000,-0.100000)"
 stroke="none">
<path d="M3904 3513 c-56 -96 -249 -428 -413 -708 -44 -77 -85 -147 -91 -155
-5 -8 -28 -49 -51 -90 -23 -41 -50 -86 -59 -100 -10 -14 -64 -106 -120 -205
-57 -99 -108 -183 -114 -187 -14 -10 -86 -10 -85 0 0 4 24 45 52 92 32 53 60
86 72 89 27 5 35 21 22 42 -8 13 -4 27 20 65 16 27 47 81 68 119 21 39 76 134
122 212 77 132 95 173 75 173 -6 0 -151 -236 -252 -410 -90 -157 -92 -159
-201 -221 -56 -33 -104 -57 -106 -55 -6 6 70 356 112 523 19 73 46 155 60 182
27 54 32 86 14 97 -20 12 -40 -22 -83 -142 -96 -268 -252 -603 -350 -752 -111
-168 -218 -237 -310 -202 -21 8 -64 66 -54 75 2 1 29 15 60 29 79 37 122 101
98 146 -17 32 -72 27 -115 -12 -100 -87 -101 -224 -2 -269 57 -25 82 -24 152
9 128 61 243 229 384 564 30 71 56 126 58 124 2 -1 -12 -75 -31 -162 -19 -87
-38 -181 -42 -207 -4 -28 -16 -60 -30 -77 -28 -32 -30 -48 -9 -64 11 -9 12
-24 5 -81 -5 -38 -9 -91 -10 -117 0 -26 -5 -50 -10 -53 -6 -4 -84 -17 -173
-30 -89 -13 -246 -38 -348 -54 -103 -17 -191 -31 -198 -31 -12 0 -10 22 26
260 55 364 162 850 208 941 27 52 34 123 13 117 -70 -21 -249 -801 -286 -1242
l-7 -90 -130 -27 c-71 -16 -148 -33 -170 -38 -22 -5 -41 -8 -43 -6 -2 2 3 14
12 27 19 30 98 224 126 310 20 64 23 67 86 104 68 40 107 74 84 74 -7 0 -37
-14 -67 -31 -30 -17 -57 -29 -60 -26 -3 4 2 37 11 74 42 175 50 256 51 473 0
195 -2 222 -22 285 -14 43 -36 86 -56 110 l-34 39 38 36 c57 54 66 120 16 120
-30 0 -86 -37 -152 -99 -51 -49 -106 -78 -124 -66 -6 3 -11 0 -11 -7 0 -7 -23
-28 -51 -47 -86 -59 -191 -186 -253 -309 -14 -29 -40 -94 -58 -145 -40 -120
-51 -284 -23 -366 l17 -52 -56 -112 c-103 -208 -141 -417 -102 -561 l17 -63
-31 -34 c-73 -78 -82 -172 -19 -204 46 -24 52 -17 20 22 -17 21 -31 47 -31 58
0 25 28 67 61 94 26 20 27 20 44 1 55 -61 183 -79 263 -37 77 40 189 148 241
235 9 16 110 43 261 73 58 11 112 22 121 25 13 4 18 -5 23 -43 9 -64 15 -83
27 -83 5 0 9 31 9 69 l0 69 63 11 c104 19 426 69 535 84 72 10 102 11 102 3 0
-6 -14 -32 -30 -58 -29 -46 -30 -46 -122 -68 -51 -12 -170 -44 -265 -72 -134
-39 -172 -54 -176 -69 -7 -27 23 -25 130 10 133 43 362 105 368 99 3 -3 -50
-104 -118 -224 -433 -768 -687 -1234 -687 -1261 0 -18 175 279 425 722 101
180 283 500 366 645 75 132 78 135 118 144 45 10 60 4 43 -16 -5 -7 -60 -101
-122 -208 -62 -107 -164 -285 -228 -395 -234 -405 -386 -683 -359 -655 23 24
180 282 357 586 172 296 268 459 359 613 l56 95 56 12 c46 11 312 44 348 44 5
0 7 -18 4 -40 -15 -109 76 -160 190 -106 94 46 161 140 173 248 l7 57 51 5
c51 6 447 30 671 41 66 3 246 10 400 14 l280 9 55 -51 c126 -115 306 -201 600
-286 240 -70 649 -135 1020 -162 243 -18 791 -7 959 20 244 38 332 70 364 134
17 33 17 38 2 66 -50 97 -491 205 -1090 265 -521 53 -763 66 -1383 73 l-513 6
-14 35 c-8 19 -15 47 -15 62 0 15 -7 33 -15 40 -23 19 -30 -14 -17 -78 7 -31
11 -56 9 -58 -1 -1 -126 -4 -277 -8 l-275 -6 82 25 c118 35 327 112 403 148
117 54 38 40 -141 -27 -220 -81 -310 -108 -346 -104 -25 3 -28 6 -25 38 1 19
9 55 18 78 9 24 12 47 8 52 -5 4 -61 -12 -124 -36 -201 -78 -375 -134 -413
-134 -32 0 -37 3 -37 23 0 22 18 89 35 130 5 13 2 17 -13 17 -28 0 -39 -17
-53 -87 -18 -87 -6 -113 54 -113 50 0 210 48 376 114 63 25 116 44 118 42 2
-1 -1 -25 -6 -51 -10 -53 -2 -88 25 -103 23 -13 -34 -20 -226 -27 -85 -3 -193
-10 -240 -15 -47 -5 -137 -12 -200 -15 l-116 -6 -17 68 -17 68 50 46 c28 25
79 63 115 84 36 21 63 40 61 43 -10 10 -72 -20 -153 -74 -46 -31 -86 -54 -87
-53 -2 2 -18 45 -36 96 -39 111 -36 131 27 190 39 36 43 44 28 50 -25 9 -65
-16 -92 -56 -31 -47 -30 -102 7 -208 17 -47 30 -91 30 -97 0 -7 -37 -49 -82
-96 l-83 -84 -189 -19 c-103 -10 -190 -16 -193 -13 -3 2 23 52 57 110 l61 105
47 6 c99 14 285 54 295 64 23 23 -8 24 -116 3 -61 -11 -132 -24 -156 -27 l-44
-7 38 68 c20 38 54 96 75 129 20 33 65 110 99 170 35 61 106 184 159 275 52
91 122 212 155 270 33 58 88 153 123 213 35 59 64 109 64 112 0 2 21 39 46 82
46 77 114 208 114 218 0 23 -27 -10 -76 -92z m-2074 -383 c0 -12 -17 -39 -37
-61 -36 -38 -40 -40 -81 -33 l-43 7 23 24 c29 31 107 83 125 83 7 0 13 -9 13
-20z m-145 -140 c-3 -5 -13 -10 -22 -10 -9 0 -13 -3 -10 -6 4 -4 20 -1 37 6
46 19 76 1 105 -63 36 -79 48 -181 42 -347 -7 -168 -27 -305 -65 -457 l-27
-108 -80 -23 c-100 -30 -246 -33 -314 -8 -55 20 -109 60 -123 92 -10 20 -5 31
33 81 24 32 79 94 122 139 72 76 90 104 67 104 -20 0 -135 -107 -196 -182 -70
-85 -71 -85 -81 18 -13 145 55 359 169 527 62 91 197 221 213 205 3 -3 -6 -26
-20 -51 -24 -43 -25 -45 -6 -40 11 3 32 25 46 49 18 31 32 44 48 44 16 0 18 3
8 9 -21 13 -4 31 30 31 18 0 28 -4 24 -10z m1315 -794 c0 -10 -73 -126 -85
-136 -8 -6 -29 -8 -54 -4 -66 11 -53 39 43 97 74 44 96 54 96 43z m-632 -90
c4 -21 -89 -116 -113 -116 -37 0 6 89 59 121 35 21 49 20 54 -5z m-1147 -98
c102 -95 271 -113 488 -52 21 6 23 5 16 -17 -21 -70 -82 -224 -117 -295 -35
-74 -42 -83 -73 -88 -65 -13 -310 -98 -393 -138 -46 -22 -86 -38 -88 -35 -14
13 -25 134 -20 207 8 119 39 228 97 348 28 56 52 102 54 102 1 0 18 -14 36
-32z m1669 5 c0 -12 -104 -192 -109 -188 -4 5 16 145 25 178 4 12 16 17 45 17
21 0 39 -3 39 -7z m138 -2 c-1 -4 -30 -54 -62 -109 -59 -100 -72 -112 -124
-112 -30 0 -29 5 42 128 l58 102 45 0 c25 0 43 -4 41 -9z m520 -88 c6 -27 8
-51 4 -54 -10 -9 -142 -20 -142 -11 0 11 104 112 115 112 7 0 17 -21 23 -47z
m2652 -73 c877 -43 1567 -147 1736 -262 44 -30 50 -49 23 -70 -23 -19 -148
-60 -239 -77 -203 -40 -731 -52 -1104 -26 -505 36 -978 136 -1269 269 -119 54
-267 153 -267 179 0 12 805 3 1120 -13z m-2636 -92 c-25 -134 -144 -258 -247
-258 -27 0 -47 30 -47 71 0 62 14 79 63 80 l42 1 -42 10 c-40 9 -42 10 -32 35
5 14 19 38 30 54 21 30 38 34 171 37 l68 2 -6 -32z m-274 7 c0 -19 -47 -95
-59 -95 -33 -1 -312 -29 -347 -36 l-37 -7 24 42 c13 23 29 47 37 53 18 16 382
57 382 43z m-454 -87 c-28 -48 -57 -68 -99 -68 -26 0 -27 2 -16 23 6 12 22 37
36 55 20 27 31 32 64 32 l40 0 -25 -42z m-1336 -218 c-22 -42 -121 -137 -169
-163 -72 -40 -134 -44 -191 -15 -67 34 -61 54 25 91 79 34 301 106 328 106 15
1 16 -3 7 -19z"/>
<path d="M1541 3134 c0 -11 3 -14 6 -6 3 7 2 16 -1 19 -3 4 -6 -2 -5 -13z"/>
<path d="M1531 3094 c0 -11 3 -14 6 -6 3 7 2 16 -1 19 -3 4 -6 -2 -5 -13z"/>
<path d="M744 2889 c-156 -18 -430 -131 -549 -226 -146 -117 -184 -265 -104
-398 18 -32 99 -124 178 -206 78 -82 139 -149 134 -149 -5 0 -55 -27 -111 -60
-171 -101 -282 -224 -282 -313 0 -72 68 -143 166 -173 71 -21 212 -18 282 6
126 44 182 115 182 230 0 81 -33 154 -111 244 -47 55 -49 61 -33 73 19 14 471
164 552 183 47 11 72 30 39 30 -33 0 -570 -166 -619 -191 -13 -7 -47 22 -160
134 -115 113 -151 155 -176 206 -72 145 -18 271 171 400 130 88 347 165 503
177 68 6 87 4 126 -14 55 -24 72 -51 65 -104 -6 -46 -18 -62 -71 -95 -50 -32
-36 -53 18 -28 68 33 104 107 86 177 -22 81 -124 115 -286 97z m-262 -1049
c78 -89 112 -155 116 -227 4 -55 1 -68 -22 -103 -52 -79 -175 -125 -311 -118
-91 5 -147 28 -190 80 -54 64 -18 166 92 252 51 40 251 165 265 166 3 0 26
-22 50 -50z"/>
<path d="M6424 2764 c-24 -25 -44 -49 -44 -54 0 -26 15 -40 42 -40 50 0 111
81 94 125 -10 28 -48 16 -92 -31z m56 -2 c0 -13 -23 -32 -39 -32 -11 0 -10 4
4 20 19 21 35 26 35 12z"/>
<path d="M3902 2328 c-19 -19 -15 -60 4 -56 28 5 41 35 23 53 -12 12 -17 13
-27 3z"/>
<path d="M4438 2316 c-8 -20 -8 -30 0 -38 19 -19 44 -1 40 29 -4 36 -25 40
-40 9z"/>
</g>
</svg>
