<?xml version="1.0" encoding="UTF-8"?>
<svg version="1.1" viewBox="0 0 2048 1410" width="270" height="186" xmlns="http://www.w3.org/2000/svg">
<path transform="translate(1394,89)" d="m0 0h27l22 3 28 7 20 8 17 9 12 8 12 9 13 12 7 7 15 20 11 19 11 22 9 24 8 32 5 33 1 7v23l-8 54-7 30-9 30-7 20-14 34-9 20-26 52-13 23-12 21-12 19-13 19-12 17-10 13-12 17-11 14-14 20-10 15-14 23-10 18-12 25-8 22-7 25-5 27-3 24-1 15v17l3 36 3 25 1 11-2 1-133 1-5-5-8-10-13-15-22-24-15-15-8-7-14-12-14-11-20-14-15-9-16-8-21-8-20-4-17-2-19 3-15 5-15 8-10 8-10 9-8 9-12 18-12 21-11 25-8 22-3 10-3 3h-102l-3-8-9-35-8-20-9-17-10-14-8-9-15-10-13-5-13-2-13 1-14 5-12 7-11 9-9 10-10 14-12 23-9 23-5 18-3 9-1 1h-56l-31-1-51-1-1-2-5-59-3-48v-37l2-38 6-56 8-43 10-40 9-27 12-29 10-21 10-17 14-21 13-17 9-10 23-23 11-9 12-9 18-11 27-14 15-7h4l8 16 8 18 10 19 14 27 13 23 12 18 11 13 15 12 16 8 11 4 16 3 16 1 24-5 17-7 15-8 17-12 13-11 12-11 7-7 7-8 9-10 13-17 9-12-8 4-16 16-8 7-15 12-24 16-19 11-20 8-21 6h-26l-13-3-13-7-10-9-9-9-10-15-8-13-16-27-13-23-12-22-21-42-7-18-3-14v-15l6-16 8-10 9-8 18-11 17-9 24-9 36-12 35-9 35-7 31-4 26-3h42l40 4 32 5 26 6 29 9 20 7 22 9 29 14 21 12 23 15 24 16 10 7 16 9 14 7 20 8 19 6 23 3h37l22-4 20-7 22-11 15-10 13-10 10-9 9-10 16-24 9-17 7-19 3-12 1-7v-36l-3-11-7-15-9-15-8-10-7-7-15-10-17-8-13-3-11-1h-13l-15 2-15 4-28 13-4 1h-7l-8-7-6-8-12-23-7-16 1-8 6-9 6-7 10-8 14-8 21-8 17-4zm-222 419-3 16v26l4 16 5 10 8 10 8 8 13 8 12 5 17 4h21l16-4 12-5 10-6 11-9 9-11 5-7 3-8-1-4-36-12-2 2v10l-4 15-4 6-5 5-8 5-7 2-14 1-12-3-9-6-6-7-4-10-2-15 4-12 7-9 1-5-9-4-36-12z" fill="#042E38"/>
<path transform="translate(545,1061)" d="m0 0h16l22 3 15 5 17 9 13 10 11 11 10 14 9 18-1 3-21 9-13 5-4 3-4-2-13-22-6-7v-2h-2v-2l-4-2-10-6-12-4-5-1h-19l-17 5-10 6-10 9-9 14-6 15-4 14-2 23v11l2 16 5 16 6 12 9 12 8 7 14 8 16 4h20l15-4 15-8 9-8 7-11 6-15 2-8-62-1-4-2v-38l1-1h105l1 1v48l-3 18-5 15-7 14-10 13-8 8-15 10-19 7-17 4-23 2-23-1-17-4-14-5-13-8-11-9-13-13-9-13-7-14-7-19-3-14v-52l4-19 8-20 8-15 10-13 12-12 14-10 14-8 14-5 15-3z" fill="#4FC636"/>
<path transform="translate(1096,1069)" d="m0 0h17l23 1 1 1v242l-2 2-25 1h-13l-2-12-6 1-14 9-13 4-7 1h-20l-14-3-12-5-10-6-9-8-9-13-7-15-4-15-2-16v-11l2-19 4-16 7-16 8-12 9-10 14-10 11-5 8-2 19-1 14 1 12 4 14 8 4 3 1-82zm-52 105-10 4-10 9-7 11-4 13-2 12 1 15 4 16 7 14 5 6 9 6 10 3h10l13-4 9-6 6-7 6-12 2-9 1-18-2-21-4-11-7-10-8-7-10-4z" fill="#4FC636"/>
<path transform="translate(863,1135)" d="m0 0h28l19 3 15 6 10 7 8 9 4 9 2 12 1 121 5 11-1 3h-45l-2-7-1-4-7 1-10 5-16 5-13 2h-17l-16-4-12-6-9-7-7-9-5-11-3-11v-13l3-12 7-13 5-6 10-8 11-5 15-5 34-6 20-6 9-6 2-3-1-5-6-8-8-5-5-1h-21l-11 4-6 4-6 9-3 9-12-2h-19l-9-2-2-4 8-20 7-10 9-8 16-8 16-4zm43 93-16 5-26 5-18 5-8 7-3 5v11l3 6 7 7 13 4h11l16-4 11-7 6-5 5-10 1-5 1-21z" fill="#4FC636"/>
<path transform="translate(1311,1136)" d="m0 0h9l16 2 16 5 14 8 13 12 9 14 6 14 5 22 2 15v7l-2 1h-127l4 15 4 8 9 10 9 6 11 4 5 1h12l14-3 10-6 8-9 3-5 9 3 22 11 4 4-2 5-9 11-7 8-8 7-11 6-10 4-16 3-10 1h-19l-13-2-12-4-13-7-11-9-7-7-7-10-7-15-5-19-1-7v-28l3-17 6-16 7-11 8-10 12-9 14-7 14-4zm-3 33-12 4-9 7-7 8-5 8-2 5 1 5 8 1h55l17-1 2-1-1-6-9-17-9-8-10-4-4-1z" fill="#4FC636"/>
<path transform="translate(1388,227)" d="m0 0h17l10 3 10 6 7 8 9 15 2 2 17-1 8-1 3 1-2 5-14 14-7 6-3 5-4 21-7 17-7 12-11 12-12 9-15 7-15 4-22 4-7 1h-23l-32-6-4-2 1-4 7-7 8-10 13-16 11-17 8-16 6-15 7-19 6-14 8-10 8-7 13-6zm17 34-9 6-1 3 1 1 7-1 4-4h4l2 4h6l-3-5-7-4z" fill="#50C736"/>
<path transform="translate(1168,1069)" d="m0 0h39l1 1 1 103v139l-4 3-11 1h-23l-3-1-1-2v-243z" fill="#50C736"/>
<path transform="translate(774,1136)" d="m0 0h6l2 1 1 40-7 2-20 4-10 5-7 6-8 13-3 13-1 93-2 2-7 1h-30l-2-2-1-10v-45l1-121 40 1 1 1-1 18 7-2 6-7 14-9 11-3z" fill="#50C736"/>
</svg>
