<?xml version="1.0" encoding="UTF-8"?>
<svg version="1.1" viewBox="0 0 2000 2000" width="500" height="500" xmlns="http://www.w3.org/2000/svg">
<path transform="translate(1432,313)" d="m0 0 5 2 12 8 14 10 18 14 16 13 16 15 12 11 10 9 15 15 9 11 11 12 22 28 16 21 14 20 11 18 12 20 15 28 12 24 16 37 15 40 12 39 11 44 9 47 7 49 4 45 1 32v96l-2 25-4 36-7 45-9 41-9 36-12 38-6 18-14 35-15 33-8 16-9 17-8 16-13 22-10 16-10 15-10 14-11 15-8 10-6 8-10 12-9 11-10 10-9 11-27 27-11 9-12 12-9 7-13 11-19 14-16 12-21 14-28 17-27 15-21 11-25 11-14 6-26 10-19 7-39 12-48 11-32 6-34 4-33 3-22 1h-92l-14-1-5-1-26-2-40-5-35-7-36-8-34-10-33-11-28-11-36-16-16-8-22-12-27-16-10-6-17-11 1-4 12-13 35-35 8-7 44-44 7-8 14-14 7-8 16-17 9-9 7-8 11-13 11-11 7-8 12-14 8-8 8-10 11-12 1-2h2l2-4 11-13 10-11 8-10 10-12 7-8 10-13 8-9 10-13 8-10 10-13 7-8 8-11 13-16 14-19 13-17 8-11 9-12 14-19 12-17 26-38 11-16 9-13 13-20 10-15 11-17 10-15 14-22 10-16 6-10 12-19 11-18 7-11 6-11 9-15 9-16 12-21 8-13 8-15 8-13 7-14 6-9 11-22 7-11 9-19 8-16 6-11 5-9 10-19 8-16 13-25 11-23 6-12 11-24 10-22 8-16 8-18 9-19 9-21 11-25 9-20 10-23 10-25 7-15 6-17 7-16z" fill="#4488C8"/>
<path transform="translate(973,191)" d="m0 0h59l53 4 51 6 41 7 39 9 30 8 22 8 23 7 16 6 18 7 2 3-9 14-8 13-9 14-7 11-15 23-11 17-16 24-9 14-8 11-10 14-14 18-11 15-10 13-10 14-16 20-11 14-8 9-7 8-11 14-8 9-8 10-11 12-8 10-9 9-7 9-12 13-3 4h-2l-2 4-9 10-9 9-7 8-12 12-1 2h-2l-2 4-14 15-22 22-5 6-8 7-4 5-8 7-13 13h-2v2l-8 7-15 14-34 32-10 8-10 10-11 9-12 11-11 9-10 9-16 13-12 10-9 7-12 10-10 8-13 10-20 15-12 10-19 13-13 10-18 13-14 10-12 8-13 9-19 13-29 19-15 10-15 9-21 13-19 11-17 10-22 12-23 13-29 15-19 10-42 21-24 11-28 12-14 5h-5l-3-10-7-40-4-29-3-25-3-38-2-36v-58l3-49 4-36 5-35 10-50 14-52 16-49 15-38 17-38 8-15 8-16 21-35 12-18 9-13 12-17 12-16 9-11 10-12 7-8 13-14 14-16 8-7 13-13 8-7 16-15 13-10 10-8 17-13 10-7 14-10 11-7 14-9 24-14 28-15 19-9 15-7 25-10 47-16 24-7 34-9 26-5 53-8 36-4z" fill="#4488C8"/>
<path transform="translate(1345,264)" d="m0 0 7 1 20 10 20 11 18 11 3 2-1 5-5 8-5 13-11 21-11 23-8 16-24 47-11 21-10 18-7 13-9 16-12 21-10 17-16 27-8 13-9 16-7 11-7 12-8 13-21 33-16 25-8 11-15 23-15 22-13 18-12 17-4 5-6 10-8 10-10 15-11 14-13 17-13 18-10 13-13 17-10 12-9 12-10 12-11 14-14 17-9 11-14 16-12 14-11 13-9 11-12 14-7 8-8 8-7 8-10 12h-2l-2 4-11 12-5 5-12 13-9 9-5 6h-2l-2 4-13 13-9 11-11 11-7 8-47 47-8 7-12 11-7 7-8 7-13 13-8 7-13 12-16 15-14 12-13 12-11 9-13 12-10 8-14 12-14 11-17 14-17 13-12 10-16 12-14 11-48 36-11 7-12 10h-2l-8-11-5-5-20-28-8-12-10-16-12-19-16-28-10-19-5-11-3-9 1-5 12-7 10-6 14-7 9-6 17-10 16-10 17-10 9-6 21-13 20-13 14-9 18-12 29-20 19-14 8-6 18-13 13-10 17-13 12-9 9-7 8-7 14-10 4-5 13-10 14-12 9-7 9-8 9-7 8-8 8-6 8-8 8-7 7-7 10-8 10-10 8-7 13-13 16-13 53-53 7-8 4-4h2v-2l6-5 8-10 8-8 7-8 11-11 5-6 6-5 10-13 7-7 5-6 6-5 7-10 10-10 7-9 10-11 7-8 9-12 5-5 6-7 7-9 7-8 10-13 10-12 8-10 11-14 7-9 8-11 10-12 8-11 4-5 4-6 9-12 13-18 7-9 7-11 13-18 14-22 9-12 4-6 12-17 13-21 13-20 9-14 15-24 12-20 8-13 13-22 8-13 6-12 7-11 11-20 7-12 6-12 8-14z" fill="#4488C8"/>
</svg>
