<?xml version="1.0" encoding="UTF-8"?>
<svg version="1.1" viewBox="0 0 900 900" width="900" height="900" xmlns="http://www.w3.org/2000/svg">
<path transform="translate(0)" d="m0 0h900v900h-900z" fill="#FEFEFE"/>
<path transform="translate(645,140)" d="m0 0 6 3 1 2 5 3 6 5 3 1 4 4v2l4 1 7 7 8 7 11 11 7 8 3 3 1 3 4 4 9 11 2 4 2 1 6 11 3 4v3h2l6 12 9 17 4 8 1 7h2l5 15 5 16 2 6 3 10 1 11h2l3 18 2 14 1 10 1 1 1 14 1 38-1 31-1 14h-2v11l-1 8-1 1v7l-1 1-2 13-2 6-2 11h-2l-1 9-3 9-1 4h-2l-1 8-4 11-3 7-1 3h-2l-1 5-1 3h-2l-1 7-4 7h-2l-1 5-1 3h-2l-1 4-4 7h-2l-1 6-2 1-4 7-4 6-8 10-6 8-9 10-3 3-1 3-6 5-5 6-9 7-7 7-7 6-5 3-9 7h-2l-1 3-7 4-4 1v2l-11 6-9 5-6 4-6 1v2l-9 3-8 4-5 2h-4v2l-4 1-11 4-6 2-4 1-9 2-6 2-12 2-1 1-25 3-1 1-13 1h-62l-15-1-1-1h-8l-1-1-16-2-7-2-12-2-6-2-10-3-16-5-4-1v-2l-9-2-10-5-7-2v-2l-6-1-9-5-10-6-7-4v-2l-4-1-7-4 2-4 52-52 3-5 15-15 7-8 7-7 2-4 6-5 4-6 7-7 7-8 4-6 11-12 6-7 3-5 9-11 4-4 3-5 7-8 3-5h2l1-4 6-7 3-5 5-6 1-3 2-1 3-5 4-5 3-5 8-10 4-7 7-10 7-11 2-4 2-1 4-7 7-10 3-6 6-9h2l1-5 3-5 6-8 3-6 6-10 1-3h2l1-4 7-12 4-7 6-10 9-18h2l1-5 3-5 8-16 4-7 10-19 9-19 3-6h2l2-9 9-17 2-7h2l1-5 5-11 4-8 3-9h2l1-7h2l2-9 4-8v-2h2l1-5 3-8 5-11 2-5z" fill="#4287C8"/>
<path transform="translate(467,85)" d="m0 0 5 1 31 2 1 1 24 3 7 2 9 2h2v2l11 1 8 3 13 4 11 5 8 3-1 4-4 7h-2l-1 5-6 9-7 11-2 4-2 1-4 7-7 10-4 5-4 7-3 3-3 5-10 13-9 12-4 4-3 5-10 11-3 5h-2l-2 5-16 17-3 5-8 8-7 8-12 12-1 3-6 5-5 5-7 8-6 5-5 6-8 7-12 11-9 9h-3l-2 4-7 7-5 3-7 7-8 7-4 1-2 4-3 3-5 3-9 8-3 1-5 5-10 8-6 4-5 4h-3l-2 4-5 3-5 4-3 1-3 3-8 6-7 4-5 4-13 8-8 6-6 3-10 6h-3v2l-14 8h-3l-1 3-12 6-17 9-19 9-11 6-7 1v2l-6 3-4 1-10 4-3-1v-6h-2l-3-24-1-1-2-23-1-21-1-1v-33h2v-22l2-22h2v-10l2-13 2-7 3-11 2-9 2-6 5-17h2l-1-3 5-11 3-7 2-5h2l1-7 10-19 2-4h2l1-4 1-3h2l1-4 7-11 5-6 3-5 6-7 1-3 4-4h2l1-4 9-9 7-8 8-8 8-7 4-4 3-1 3-4 5-3 7-6 5-3 8-6 7-4h3v-2l22-12h3v-2l17-7 9-4 7-2h4v-2l12-3 6-2 7-2 8-2h7v-2l24-3 1-1 30-2z" fill="#4287C8"/>
<path transform="translate(606,118)" d="m0 0 16 8 11 6v2h3l-1 4-5 12-10 19-9 19-16 30-3 6h-2l-1 5-3 5-7 12-5 10-2 1-5 10h-2l-1 4-6 10-2 4h-2l-1 4-5 8h-2l-1 5-8 11-6 10-7 10-4 5-4 7-4 6-2 1-4 7-3 3-2 4h-2l-1 4-6 7-3 5-9 11-3 5-7 8-2 4-2 1-3 5-8 9-3 5-9 10-1 3-6 5-3 5-14 15-3 5-4 4h-2l-1 3h-2l-1 4-12 12-7 8-15 15-3 5-30 30-5 3-19 19-8 7-16 15-5 3-7 7-8 7-5 3-15 13-5 3-8 7h-3l-2 4h-2v2l-5 3-9 6-1 2-5 3-6 4-8 6h-3l-5-6-3-5-8-10-4-7-6-9-4-7-1-5-3-1-8-17-1-2 1-2h-2l1-3 5-1 1-3 12-6 10-6h3l1-3 6-3 15-9 7-4 1-2 7-4 15-10 8-6h3l1-3 5-3 6-5 7-4 10-9 5-3 8-7 6-5 5-3 10-9 5-3 15-14 8-7 5-5 5-3 15-15 8-7 31-31 7-8 13-13 3-5 8-8 7-8 12-13 4-6 9-10 3-5 3-3h2l1-4 9-10 3-5 10-13h2l1-4 6-7 2-4h2l1-4 6-7 2-4h2l1-4 1-3 3-2 4-7 4-6h2l1-4 5-6 4-7 6-10 4-6h2l1-4 6-10 2-4h2l1-4 4-7h2l1-5 3-5 4-6 5-10h2l1-5 6-10 5-10h2l1-5z" fill="#4287C8"/>
</svg>
